<mxfile host="app.diagrams.net" modified="2022-04-16T01:54:57.143Z" agent="5.0 (Windows NT 10.0; Win64; x64) AppleWebKit/537.36 (KHTML, like Gecko) Chrome/100.0.4896.88 Safari/537.36" etag="A0dwHB4YQSKwEjcLISyz" version="17.4.4" type="github">
  <diagram id="GYjsUdGKFCX6E71LOG4T" name="第 1 页">
    <mxGraphModel dx="1422" dy="698" grid="1" gridSize="10" guides="1" tooltips="1" connect="1" arrows="1" fold="1" page="1" pageScale="1" pageWidth="827" pageHeight="1169" math="0" shadow="0">
      <root>
        <mxCell id="0" />
        <mxCell id="1" parent="0" />
        <mxCell id="-EIhwpINamlwKlCdgpav-13" value="" style="rounded=0;orthogonalLoop=1;jettySize=auto;html=1;" edge="1" parent="1" source="-EIhwpINamlwKlCdgpav-17" target="-EIhwpINamlwKlCdgpav-18">
          <mxGeometry relative="1" as="geometry" />
        </mxCell>
        <mxCell id="-EIhwpINamlwKlCdgpav-14" value="" style="edgeStyle=none;rounded=0;orthogonalLoop=1;jettySize=auto;html=1;" edge="1" parent="1" source="-EIhwpINamlwKlCdgpav-17" target="-EIhwpINamlwKlCdgpav-18">
          <mxGeometry relative="1" as="geometry" />
        </mxCell>
        <mxCell id="-EIhwpINamlwKlCdgpav-15" value="" style="edgeStyle=none;rounded=0;orthogonalLoop=1;jettySize=auto;html=1;" edge="1" parent="1" source="-EIhwpINamlwKlCdgpav-17" target="-EIhwpINamlwKlCdgpav-19">
          <mxGeometry relative="1" as="geometry" />
        </mxCell>
        <mxCell id="-EIhwpINamlwKlCdgpav-16" value="" style="edgeStyle=none;rounded=0;orthogonalLoop=1;jettySize=auto;html=1;" edge="1" parent="1" source="-EIhwpINamlwKlCdgpav-17" target="-EIhwpINamlwKlCdgpav-21">
          <mxGeometry relative="1" as="geometry" />
        </mxCell>
        <mxCell id="-EIhwpINamlwKlCdgpav-28" value="" style="edgeStyle=none;rounded=0;orthogonalLoop=1;jettySize=auto;html=1;" edge="1" parent="1" source="-EIhwpINamlwKlCdgpav-17" target="-EIhwpINamlwKlCdgpav-27">
          <mxGeometry relative="1" as="geometry" />
        </mxCell>
        <mxCell id="-EIhwpINamlwKlCdgpav-17" value="Actor" style="shape=umlActor;verticalLabelPosition=bottom;verticalAlign=top;html=1;outlineConnect=0;" vertex="1" parent="1">
          <mxGeometry x="180" y="640" width="60" height="100" as="geometry" />
        </mxCell>
        <mxCell id="-EIhwpINamlwKlCdgpav-18" value="新增房间" style="ellipse;whiteSpace=wrap;html=1;verticalAlign=middle;align=center;" vertex="1" parent="1">
          <mxGeometry x="360" y="540" width="120" height="60" as="geometry" />
        </mxCell>
        <mxCell id="-EIhwpINamlwKlCdgpav-19" value="修改房间" style="ellipse;whiteSpace=wrap;html=1;verticalAlign=middle;" vertex="1" parent="1">
          <mxGeometry x="390" y="626" width="120" height="60" as="geometry" />
        </mxCell>
        <mxCell id="-EIhwpINamlwKlCdgpav-21" value="删除房间" style="ellipse;whiteSpace=wrap;html=1;verticalAlign=middle;" vertex="1" parent="1">
          <mxGeometry x="390" y="710" width="120" height="60" as="geometry" />
        </mxCell>
        <mxCell id="-EIhwpINamlwKlCdgpav-27" value="房间监控" style="ellipse;whiteSpace=wrap;html=1;verticalAlign=top;" vertex="1" parent="1">
          <mxGeometry x="360" y="800" width="120" height="60" as="geometry" />
        </mxCell>
      </root>
    </mxGraphModel>
  </diagram>
</mxfile>
